<?xml version="1.0" encoding="UTF-8" standalone="no"?>
<svg width="200px" height="200px" viewBox="0 0 200 200" version="1.1" xmlns="http://www.w3.org/2000/svg" xmlns:xlink="http://www.w3.org/1999/xlink">
    <!-- Generator: Sketch 41.2 (35397) - http://www.bohemiancoding.com/sketch -->
    <title>Заглушка@1x</title>
    <desc>Created with Sketch.</desc>
    <defs>
        <circle id="path-1" cx="100" cy="100" r="100"></circle>
    </defs>
    <g id="1422" stroke="none" stroke-width="1" fill="none" fill-rule="evenodd">
        <g id="#1422-3)заглушку-фото-сотрудника" transform="translate(-519.000000, -248.000000)">
            <g id="Заглушка" transform="translate(519.000000, 248.000000)">
                <mask id="mask-2" fill="white">
                    <use xlink:href="#path-1"></use>
                </mask>
                <use id="Портрет" fill="#FFFFFF" xlink:href="#path-1"></use>
                <path d="M100.300823,202.988033 C129.814105,202.988033 156.484813,190.777917 175.601646,171.116879 C164.257672,149.310077 148.16976,144.839735 148.16976,144.839735 L138.595551,144.839735 C128.020125,144.839735 119.448187,136.222821 119.448187,125.595576 L119.448187,119.414337 C123.683621,114.353593 126.722017,108.369155 128.610749,102.044018 C128.805518,100.977485 129.827791,100.450566 130.510009,99.7173245 C134.174823,96.0352444 134.895994,89.819089 132.145015,85.3931864 C131.772322,84.7223707 131.096421,84.1383166 131.133269,83.3066743 C131.133269,77.6639924 131.162748,72.0117878 131.126953,66.3743961 C130.977454,59.5678383 129.042399,52.4861824 124.292143,47.4455417 C120.45888,43.3730342 115.193802,40.9489981 109.763434,39.9110324 C102.900198,38.5947946 95.7200686,38.6603948 88.9221068,40.3988022 C83.031663,41.8927956 77.4981201,45.3600877 74.0765039,50.5001869 C71.0454784,54.9684123 69.7178913,60.3931321 69.4936438,65.7406128 C69.4094194,71.4816952 69.4757461,77.2365325 69.4578485,82.9913698 C69.5873435,84.1436069 68.6166573,84.9234038 68.1765848,85.8767239 C65.5856318,90.5988859 66.7268724,97.0308873 70.8875576,100.465379 C71.9424682,101.196505 72.1414483,102.531788 72.5236166,103.684025 C74.3386523,109.367972 77.3475689,114.624459 81.1534589,119.205897 L81.1534589,125.595576 C81.1534589,136.222821 72.580468,144.839735 62.0060949,144.839735 L52.4308336,144.839735 C52.4308336,144.839735 36.3439736,149.30796 25,171.115821 C44.1157799,190.777917 70.7875411,202.988033 100.300823,202.988033 Z" id="Stroke-3" stroke="#D6D6D6" stroke-width="3" mask="url(#mask-2)"></path>
            </g>
        </g>
    </g>
</svg>